<svg width="256" height="256" version="1.1" xmlns="http://www.w3.org/2000/svg" desc="Created with imagetracer.js version 1.2.6" ><path fill="rgb(154,83,67)" stroke="rgb(154,83,67)" stroke-width="1" opacity="0.9450980392156862" d="M 18.5 7 L 19 248.5 L 18 248.5 L 18.5 7 Z " /><path fill="rgb(154,83,67)" stroke="rgb(154,83,67)" stroke-width="1" opacity="0.9450980392156862" d="M 237.5 7 L 238 248.5 L 237 248.5 L 237.5 7 Z " /><path fill="rgb(154,83,67)" stroke="rgb(154,83,67)" stroke-width="1" opacity="0.9450980392156862" d="M 80.5 19 L 84 19.5 L 80.5 20 L 80.5 19 Z " /><path fill="rgb(154,83,67)" stroke="rgb(154,83,67)" stroke-width="1" opacity="0.9450980392156862" d="M 95.5 23 L 96.5 25 L 95.5 23 Z " /><path fill="rgb(154,83,67)" stroke="rgb(154,83,67)" stroke-width="1" opacity="0.9450980392156862" d="M 98.5 25 L 99.5 27 L 98.5 25 Z " /><path fill="rgb(154,83,67)" stroke="rgb(154,83,67)" stroke-width="1" opacity="0.9450980392156862" d="M 82 26 Q 94.8 27.3 101 36.5 L 106 45.5 L 106 51 L 82 51 L 82 26 Z " /><path fill="rgb(154,83,67)" stroke="rgb(154,83,67)" stroke-width="1" opacity="0.9450980392156862" d="M 63.5 30 L 68 30.5 L 63.5 31 L 63.5 30 Z " /><path fill="rgb(154,83,67)" stroke="rgb(154,83,67)" stroke-width="1" opacity="0.9450980392156862" d="M 190.5 31 L 210 31.5 L 190.5 32 L 190.5 31 Z " /><path fill="rgb(154,83,67)" stroke="rgb(154,83,67)" stroke-width="1" opacity="0.9450980392156862" d="M 70.5 33 L 71 62 L 100 62.5 L 71.5 63 L 70 61.5 L 70.5 33 Z " /><path fill="rgb(154,83,67)" stroke="rgb(154,83,67)" stroke-width="1" opacity="0.9450980392156862" d="M 106.5 33 L 107.5 35 L 106.5 33 Z " /><path fill="rgb(154,83,67)" stroke="rgb(154,83,67)" stroke-width="1" opacity="0.9450980392156862" d="M 50.5 34 L 49.5 36 L 50.5 34 Z " /><path fill="rgb(154,83,67)" stroke="rgb(154,83,67)" stroke-width="1" opacity="0.9450980392156862" d="M 212.5 35 L 213 139 L 219 139.5 L 212 140 L 212.5 35 Z " /><path fill="rgb(154,83,67)" stroke="rgb(154,83,67)" stroke-width="1" opacity="0.9450980392156862" d="M 47.5 36 L 46.5 38 L 47.5 36 Z " /><path fill="rgb(154,83,67)" stroke="rgb(154,83,67)" stroke-width="1" opacity="0.9450980392156862" d="M 43.5 39 L 40.5 43 L 43.5 39 Z " /><path fill="rgb(154,83,67)" stroke="rgb(154,83,67)" stroke-width="1" opacity="0.9450980392156862" d="M 38.5 45 L 37.5 47 L 38.5 45 Z " /><path fill="rgb(154,83,67)" stroke="rgb(154,83,67)" stroke-width="1" opacity="0.9450980392156862" d="M 113.5 50 L 114 54.5 L 113 54.5 L 113.5 50 Z " /><path fill="rgb(154,83,67)" stroke="rgb(154,83,67)" stroke-width="1" opacity="0.9450980392156862" d="M 77.5 57 L 111 57.5 L 77.5 58 L 77.5 57 Z " /><path fill="rgb(154,83,67)" stroke="rgb(154,83,67)" stroke-width="1" opacity="0.9450980392156862" d="M 32.5 59 L 33 61.5 L 32 61.5 L 32.5 59 Z " /><path fill="rgb(154,83,67)" stroke="rgb(154,83,67)" stroke-width="1" opacity="0.9450980392156862" d="M 151.5 66 L 152 140 L 139 139.5 L 151 139 L 151.5 66 Z " /><path fill="rgb(154,83,67)" stroke="rgb(154,83,67)" stroke-width="1" opacity="0.9450980392156862" d="M 175.5 66 L 176 139 L 188 139.5 L 176.5 140 L 175 138.5 L 175.5 66 Z " /><path fill="rgb(154,83,67)" stroke="rgb(154,83,67)" stroke-width="1" opacity="0.9450980392156862" d="M 91.5 80 L 90.5 82 L 91.5 80 Z " /><path fill="rgb(154,83,67)" stroke="rgb(154,83,67)" stroke-width="1" opacity="0.9450980392156862" d="M 37.5 84 L 38.5 86 L 37.5 84 Z " /><path fill="rgb(154,83,67)" stroke="rgb(154,83,67)" stroke-width="1" opacity="0.9450980392156862" d="M 88.5 84 L 86.5 87 L 88.5 84 Z " /><path fill="rgb(154,83,67)" stroke="rgb(154,83,67)" stroke-width="1" opacity="0.9450980392156862" d="M 116.5 86 L 115.5 88 L 116.5 86 Z " /><path fill="rgb(154,83,67)" stroke="rgb(154,83,67)" stroke-width="1" opacity="0.9450980392156862" d="M 94.5 87 L 89.5 93 L 94.5 87 Z " /><path fill="rgb(154,83,67)" stroke="rgb(154,83,67)" stroke-width="1" opacity="0.9450980392156862" d="M 40.5 88 L 44.5 93 L 40.5 88 Z " /><path fill="rgb(154,83,67)" stroke="rgb(154,83,67)" stroke-width="1" opacity="0.9450980392156862" d="M 50.5 88 L 51.5 90 L 50.5 88 Z " /><path fill="rgb(154,83,67)" stroke="rgb(154,83,67)" stroke-width="1" opacity="0.9450980392156862" d="M 83.5 88 L 82.5 90 L 83.5 88 Z " /><path fill="rgb(154,83,67)" stroke="rgb(154,83,67)" stroke-width="1" opacity="0.9450980392156862" d="M 61.5 93 L 64 93.5 L 61.5 94 L 61.5 93 Z " /><path fill="rgb(154,83,67)" stroke="rgb(154,83,67)" stroke-width="1" opacity="0.9450980392156862" d="M 70.5 93 L 73 93.5 L 70.5 94 L 70.5 93 Z " /><path fill="rgb(154,83,67)" stroke="rgb(154,83,67)" stroke-width="1" opacity="0.9450980392156862" d="M 121.5 93 L 122 139 L 132 139.5 L 122.5 140 L 121 138.5 L 121.5 93 Z " /><path fill="rgb(154,83,67)" stroke="rgb(154,83,67)" stroke-width="1" opacity="0.9450980392156862" d="M 86.5 94 L 85.5 96 L 86.5 94 Z " /><path fill="rgb(154,83,67)" stroke="rgb(154,83,67)" stroke-width="1" opacity="0.9450980392156862" d="M 63.5 100 L 72 100.5 L 63.5 101 L 63.5 100 Z " /><path fill="rgb(154,83,67)" stroke="rgb(154,83,67)" stroke-width="1" opacity="0.9450980392156862" d="M 79.5 107 L 78.5 109 L 79.5 107 Z " /><path fill="rgb(154,83,67)" stroke="rgb(154,83,67)" stroke-width="1" opacity="0.9450980392156862" d="M 100.5 107 L 101.5 109 L 100.5 107 Z " /><path fill="rgb(154,83,67)" stroke="rgb(154,83,67)" stroke-width="1" opacity="0.9450980392156862" d="M 85 114 L 96 114 L 96 138.5 L 94.5 140 L 85 140 L 85 114 Z " /><path fill="rgb(154,83,67)" stroke="rgb(154,83,67)" stroke-width="1" opacity="0.9450980392156862" d="M 71.5 139 L 78 139.5 L 71.5 140 L 71.5 139 Z " /><path fill="rgb(154,83,67)" stroke="rgb(154,83,67)" stroke-width="1" opacity="0.9450980392156862" d="M 104.5 139 L 113 139.5 L 104.5 140 L 104.5 139 Z " /><path fill="rgb(154,83,67)" stroke="rgb(154,83,67)" stroke-width="1" opacity="0.9450980392156862" d="M 71.5 146 L 219 146.5 L 71.5 147 L 71.5 146 Z " /><path fill="rgb(154,83,67)" stroke="rgb(154,83,67)" stroke-width="1" opacity="0.9450980392156862" d="M 36.5 162 L 35.5 164 L 36.5 162 Z " /><path fill="rgb(154,83,67)" stroke="rgb(154,83,67)" stroke-width="1" opacity="0.9450980392156862" d="M 152.5 162 L 151.5 164 L 152.5 162 Z " /><path fill="rgb(154,83,67)" stroke="rgb(154,83,67)" stroke-width="1" opacity="0.9450980392156862" d="M 222.5 162 L 223.5 164 L 222.5 162 Z " /><path fill="rgb(154,83,67)" stroke="rgb(154,83,67)" stroke-width="1" opacity="0.9450980392156862" d="M 38.5 168 L 128 168.5 L 38.5 169 L 38.5 168 Z " /><path fill="rgb(154,83,67)" stroke="rgb(154,83,67)" stroke-width="1" opacity="0.9450980392156862" d="M 37.5 184 L 129 184.5 L 37.5 185 L 37.5 184 Z " /><path fill="rgb(154,83,67)" stroke="rgb(154,83,67)" stroke-width="1" opacity="0.9450980392156862" d="M 35.5 189 L 36.5 191 L 35.5 189 Z " /><path fill="rgb(154,83,67)" stroke="rgb(154,83,67)" stroke-width="1" opacity="0.9450980392156862" d="M 37.5 207 L 129 207.5 L 37.5 208 L 37.5 207 Z " /><path fill="rgb(154,83,67)" stroke="rgb(154,83,67)" stroke-width="1" opacity="0.9450980392156862" d="M 35.5 212 L 36.5 214 L 35.5 212 Z " /><path fill="rgb(154,83,67)" stroke="rgb(154,83,67)" stroke-width="1" opacity="0.9450980392156862" d="M 130.5 212 L 129.5 214 L 130.5 212 Z " /><path fill="rgb(154,83,67)" stroke="rgb(154,83,67)" stroke-width="1" opacity="0.9450980392156862" d="M 128.5 230 L 131 231.5 L 129.5 231 L 128.5 230 Z " /><path fill="rgb(154,83,67)" stroke="rgb(154,83,67)" stroke-width="1" opacity="0.9450980392156862" d="M 130.5 235 L 129.5 237 L 128 236.5 L 130.5 235 Z " /><path fill="rgb(235,211,163)" stroke="rgb(235,211,163)" stroke-width="1" opacity="0.9529411764705882" d="M 19.5 7 L 237 7.5 L 19.5 8 L 19.5 7 Z " /><path fill="rgb(235,211,163)" stroke="rgb(235,211,163)" stroke-width="1" opacity="0.9529411764705882" d="M 78.5 18 L 81 18.5 L 78.5 19 L 78.5 18 Z " /><path fill="rgb(235,211,163)" stroke="rgb(235,211,163)" stroke-width="1" opacity="0.9529411764705882" d="M 74.5 21 L 75 54.5 L 74 54.5 L 74.5 21 Z " /><path fill="rgb(235,211,163)" stroke="rgb(235,211,163)" stroke-width="1" opacity="0.9529411764705882" d="M 99.5 25 L 100.5 27 L 99.5 25 Z " /><path fill="rgb(235,211,163)" stroke="rgb(235,211,163)" stroke-width="1" opacity="0.9529411764705882" d="M 59.5 30 L 62 30.5 L 59.5 31 L 59.5 30 Z " /><path fill="rgb(235,211,163)" stroke="rgb(235,211,163)" stroke-width="1" opacity="0.9529411764705882" d="M 189.5 31 L 188.5 33 L 189.5 31 Z " /><path fill="rgb(235,211,163)" stroke="rgb(235,211,163)" stroke-width="1" opacity="0.9529411764705882" d="M 106.5 32 L 107.5 34 L 106.5 32 Z " /><path fill="rgb(235,211,163)" stroke="rgb(235,211,163)" stroke-width="1" opacity="0.9529411764705882" d="M 187.5 34 L 188 138.5 L 187 138.5 L 187.5 34 Z " /><path fill="rgb(235,211,163)" stroke="rgb(235,211,163)" stroke-width="1" opacity="0.9529411764705882" d="M 42.5 39 L 41.5 41 L 42.5 39 Z " /><path fill="rgb(235,211,163)" stroke="rgb(235,211,163)" stroke-width="1" opacity="0.9529411764705882" d="M 38.5 44 L 37.5 46 L 38.5 44 Z " /><path fill="rgb(235,211,163)" stroke="rgb(235,211,163)" stroke-width="1" opacity="0.9529411764705882" d="M 113.5 46 L 114 48.5 L 113 48.5 L 113.5 46 Z " /><path fill="rgb(235,211,163)" stroke="rgb(235,211,163)" stroke-width="1" opacity="0.9529411764705882" d="M 75.5 56 L 76.5 58 L 75.5 56 Z " /><path fill="rgb(235,211,163)" stroke="rgb(235,211,163)" stroke-width="1" opacity="0.9529411764705882" d="M 113.5 56 L 112.5 58 L 113.5 56 Z " /><path fill="rgb(235,211,163)" stroke="rgb(235,211,163)" stroke-width="1" opacity="0.9529411764705882" d="M 31.5 61 L 32 69.5 L 31 69.5 L 31.5 61 Z " /><path fill="rgb(235,211,163)" stroke="rgb(235,211,163)" stroke-width="1" opacity="0.9529411764705882" d="M 71.5 61 L 99 61.5 L 71.5 62 L 71.5 61 Z " /><path fill="rgb(235,211,163)" stroke="rgb(235,211,163)" stroke-width="1" opacity="0.9529411764705882" d="M 153.5 63 L 174 63.5 L 153.5 64 L 153.5 63 Z " /><path fill="rgb(235,211,163)" stroke="rgb(235,211,163)" stroke-width="1" opacity="0.9529411764705882" d="M 102.5 64 L 103 70.5 L 102 70.5 L 102.5 64 Z " /><path fill="rgb(235,211,163)" stroke="rgb(235,211,163)" stroke-width="1" opacity="0.9529411764705882" d="M 35.5 82 L 36.5 84 L 35.5 82 Z " /><path fill="rgb(235,211,163)" stroke="rgb(235,211,163)" stroke-width="1" opacity="0.9529411764705882" d="M 37.5 85 L 38.5 87 L 37.5 85 Z " /><path fill="rgb(235,211,163)" stroke="rgb(235,211,163)" stroke-width="1" opacity="0.9529411764705882" d="M 117.5 85 L 137 85.5 L 117.5 86 L 117.5 85 Z " /><path fill="rgb(235,211,163)" stroke="rgb(235,211,163)" stroke-width="1" opacity="0.9529411764705882" d="M 115.5 86 L 115 87.5 L 114.5 89 L 114 87.5 L 115.5 86 Z " /><path fill="rgb(235,211,163)" stroke="rgb(235,211,163)" stroke-width="1" opacity="0.9529411764705882" d="M 94.5 88 L 90.5 93 L 94.5 88 Z " /><path fill="rgb(235,211,163)" stroke="rgb(235,211,163)" stroke-width="1" opacity="0.9529411764705882" d="M 139.5 88 L 140 138.5 L 139 138.5 L 139.5 88 Z " /><path fill="rgb(235,211,163)" stroke="rgb(235,211,163)" stroke-width="1" opacity="0.9529411764705882" d="M 40.5 89 L 43.5 93 L 40.5 89 Z " /><path fill="rgb(235,211,163)" stroke="rgb(235,211,163)" stroke-width="1" opacity="0.9529411764705882" d="M 46.5 94 L 47.5 96 L 46.5 94 Z " /><path fill="rgb(235,211,163)" stroke="rgb(235,211,163)" stroke-width="1" opacity="0.9529411764705882" d="M 87.5 94 L 86.5 96 L 87.5 94 Z " /><path fill="rgb(235,211,163)" stroke="rgb(235,211,163)" stroke-width="1" opacity="0.9529411764705882" d="M 80.5 106 L 100 106.5 L 80.5 107 L 80.5 106 Z " /><path fill="rgb(235,211,163)" stroke="rgb(235,211,163)" stroke-width="1" opacity="0.9529411764705882" d="M 101.5 107 L 103 109.5 L 102 109.5 L 101.5 107 Z " /><path fill="rgb(235,211,163)" stroke="rgb(235,211,163)" stroke-width="1" opacity="0.9529411764705882" d="M 77.5 109 L 78 138.5 L 77 138.5 L 77.5 109 Z " /><path fill="rgb(235,211,163)" stroke="rgb(235,211,163)" stroke-width="1" opacity="0.9529411764705882" d="M 67.5 141 L 68 144.5 L 67 144.5 L 67.5 141 Z " /><path fill="rgb(235,211,163)" stroke="rgb(235,211,163)" stroke-width="1" opacity="0.9529411764705882" d="M 36.5 161 L 35.5 163 L 36.5 161 Z " /><path fill="rgb(235,211,163)" stroke="rgb(235,211,163)" stroke-width="1" opacity="0.9529411764705882" d="M 152.5 161 L 154 161.5 L 151.5 163 L 152.5 161 Z " /><path fill="rgb(235,211,163)" stroke="rgb(235,211,163)" stroke-width="1" opacity="0.9529411764705882" d="M 221.5 161 L 224 162.5 L 222.5 162 L 221.5 161 Z " /><path fill="rgb(235,211,163)" stroke="rgb(235,211,163)" stroke-width="1" opacity="0.9529411764705882" d="M 34.5 164 L 37 168.5 L 34 166.5 L 34.5 164 Z " /><path fill="rgb(235,211,163)" stroke="rgb(235,211,163)" stroke-width="1" opacity="0.9529411764705882" d="M 150.5 164 L 151 234.5 L 150 234.5 L 150.5 164 Z " /><path fill="rgb(235,211,163)" stroke="rgb(235,211,163)" stroke-width="1" opacity="0.9529411764705882" d="M 224.5 164 L 225 234.5 L 224 234.5 L 224.5 164 Z " /><path fill="rgb(235,211,163)" stroke="rgb(235,211,163)" stroke-width="1" opacity="0.9529411764705882" d="M 34.5 186 L 35 188.5 L 34 188.5 L 34.5 186 Z " /><path fill="rgb(235,211,163)" stroke="rgb(235,211,163)" stroke-width="1" opacity="0.9529411764705882" d="M 35.5 190 L 38 191.5 L 36.5 192 L 35.5 190 Z " /><path fill="rgb(235,211,163)" stroke="rgb(235,211,163)" stroke-width="1" opacity="0.9529411764705882" d="M 34.5 209 L 35 211.5 L 34 211.5 L 34.5 209 Z " /><path fill="rgb(235,211,163)" stroke="rgb(235,211,163)" stroke-width="1" opacity="0.9529411764705882" d="M 131.5 212 L 129.5 215 L 37 214.5 L 129.5 214 L 131.5 212 Z " /><path fill="rgb(235,211,163)" stroke="rgb(235,211,163)" stroke-width="1" opacity="0.9529411764705882" d="M 37.5 229 L 129 229.5 L 37.5 230 L 37.5 229 Z " /><path fill="rgb(235,211,163)" stroke="rgb(235,211,163)" stroke-width="1" opacity="0.9529411764705882" d="M 130.5 230 L 131.5 232 L 130.5 230 Z " /><path fill="rgb(235,211,163)" stroke="rgb(235,211,163)" stroke-width="1" opacity="0.9529411764705882" d="M 34.5 232 L 35 234.5 L 34 234.5 L 34.5 232 Z " /><path fill="rgb(235,211,163)" stroke="rgb(235,211,163)" stroke-width="1" opacity="0.9529411764705882" d="M 131.5 235 L 130.5 237 L 131.5 235 Z " /><path fill="rgb(235,211,163)" stroke="rgb(235,211,163)" stroke-width="1" opacity="0.9529411764705882" d="M 37.5 237 L 129 237.5 L 37.5 238 L 37.5 237 Z " /><path fill="rgb(235,211,163)" stroke="rgb(235,211,163)" stroke-width="1" opacity="0.9529411764705882" d="M 154.5 237 L 221 237.5 L 154.5 238 L 154.5 237 Z " /><path fill="rgb(235,211,163)" stroke="rgb(235,211,163)" stroke-width="1" opacity="0.9529411764705882" d="M 19.5 248 L 237 248.5 L 19.5 249 L 19.5 248 Z " /><path fill="rgb(207,156,70)" stroke="rgb(207,156,70)" stroke-width="1" opacity="0.9725490196078431" d="M 76.5 19 L 75.5 21 L 76.5 19 Z " /><path fill="rgb(207,156,70)" stroke="rgb(207,156,70)" stroke-width="1" opacity="0.9725490196078431" d="M 101.5 27 L 102.5 29 L 101.5 27 Z " /><path fill="rgb(207,156,70)" stroke="rgb(207,156,70)" stroke-width="1" opacity="0.9725490196078431" d="M 104.5 30 L 105.5 32 L 104.5 30 Z " /><path fill="rgb(207,156,70)" stroke="rgb(207,156,70)" stroke-width="1" opacity="0.9725490196078431" d="M 45.5 37 L 44.5 39 L 45.5 37 Z " /><path fill="rgb(207,156,70)" stroke="rgb(207,156,70)" stroke-width="1" opacity="0.9725490196078431" d="M 68.5 69 L 94.5 69 L 95 71.5 Q 92.4 82.4 84.5 88 Q 77.7 94.2 64.5 94 L 56.5 92 L 50 87.5 L 68.5 69 Z " /><path fill="rgb(207,156,70)" stroke="rgb(207,156,70)" stroke-width="1" opacity="0.9725490196078431" d="M 137.5 86 L 138.5 88 L 137.5 86 Z " /><path fill="rgb(207,156,70)" stroke="rgb(207,156,70)" stroke-width="1" opacity="0.9725490196078431" d="M 114.5 89 L 115 138.5 L 113 139.5 L 114 138.5 L 114.5 89 Z " /><path fill="rgb(207,156,70)" stroke="rgb(207,156,70)" stroke-width="1" opacity="0.9725490196078431" d="M 122 93 L 131.5 93 L 132 93.5 L 132 139 L 122.5 139 L 122 138.5 L 122 93 Z " /><path fill="rgb(207,156,70)" stroke="rgb(207,156,70)" stroke-width="1" opacity="0.9725490196078431" d="M 102.5 110 L 103 138.5 L 104 139.5 L 102 138.5 L 102.5 110 Z " /><path fill="rgb(207,156,70)" stroke="rgb(207,156,70)" stroke-width="1" opacity="0.9725490196078431" d="M 37.5 161 L 129 161.5 L 37.5 162 L 37.5 161 Z " /><path fill="rgb(207,156,70)" stroke="rgb(207,156,70)" stroke-width="1" opacity="0.9725490196078431" d="M 154.5 161 L 221 161.5 L 154.5 162 L 154.5 161 Z " /><path fill="rgb(207,156,70)" stroke="rgb(207,156,70)" stroke-width="1" opacity="0.9725490196078431" d="M 38.5 191 L 129 191.5 L 38.5 192 L 38.5 191 Z " /><path fill="rgb(207,156,70)" stroke="rgb(207,156,70)" stroke-width="1" opacity="0.9725490196078431" d="M 36.5 207 L 35.5 209 L 36.5 207 Z " /><path fill="rgb(207,156,70)" stroke="rgb(207,156,70)" stroke-width="1" opacity="0.9725490196078431" d="M 131.5 232 L 132 234.5 L 131 234.5 L 131.5 232 Z " /><path fill="rgb(207,156,70)" stroke="rgb(207,156,70)" stroke-width="1" opacity="0.9725490196078431" d="M 151.5 235 L 152.5 237 L 151.5 235 Z " /><path fill="rgb(207,156,70)" stroke="rgb(207,156,70)" stroke-width="1" opacity="0.9725490196078431" d="M 223.5 235 L 222.5 237 L 223.5 235 Z " /><path fill="rgb(0,0,0)" stroke="rgb(0,0,0)" stroke-width="1" opacity="0" d="M 0 0 L 13 0.5 L 11 3.5 L 11 252.5 L 11.5 255 L 13 255.5 L 0 256 L 0 0 Z " /><path fill="rgb(0,0,0)" stroke="rgb(0,0,0)" stroke-width="1" opacity="0" d="M 243.5 0 L 255.5 0 L 256 0.5 L 256 256 L 243 255.5 L 245 254.5 L 245 252.5 L 245 3.5 L 244 2.5 L 244.5 1 L 243.5 0 Z " /><path fill="rgb(27,155,244)" stroke="rgb(27,155,244)" stroke-width="1" opacity="0.9921568627450981" d="M 158 71 L 168.5 71 L 169 71.5 L 169 138.5 L 167.5 140 L 159.5 140 L 158 138.5 L 158 71 Z " /><path fill="rgb(27,155,244)" stroke="rgb(27,155,244)" stroke-width="1" opacity="0.9921568627450981" d="M 159.5 168 L 215.5 168 L 217 169.5 L 217 230 L 158 230 L 158 169.5 L 159.5 168 Z " /><path fill="rgb(124,212,61)" stroke="rgb(124,212,61)" stroke-width="1" opacity="0.996078431372549" d="M 59.5 38 Q 64 37.5 64 38.5 L 64 63.5 L 44.5 82 Q 37.1 75.9 39 60.5 Q 41.8 49.3 49.5 43 L 59.5 38 Z " /><path fill="rgb(124,212,61)" stroke="rgb(124,212,61)" stroke-width="1" opacity="0.996078431372549" d="M 195 38 L 204.5 38 L 206 39.5 L 206 138.5 L 204.5 140 L 196.5 140 L 195 138.5 L 195 38 Z " /><path fill="rgb(254,228,175)" stroke="rgb(254,228,175)" stroke-width="1" opacity="0.996078431372549" d="M 19.5 8 L 20 247.5 L 19 247.5 L 19.5 8 Z " /><path fill="rgb(254,228,175)" stroke="rgb(254,228,175)" stroke-width="1" opacity="0.996078431372549" d="M 236.5 8 L 237 247.5 L 236 247.5 L 236.5 8 Z " /><path fill="rgb(254,228,175)" stroke="rgb(254,228,175)" stroke-width="1" opacity="0.996078431372549" d="M 76.5 18 L 78 18.5 L 74.5 21 L 76.5 18 Z " /><path fill="rgb(254,228,175)" stroke="rgb(254,228,175)" stroke-width="1" opacity="0.996078431372549" d="M 81.5 18 L 85 18.5 L 81.5 19 L 81.5 18 Z " /><path fill="rgb(254,228,175)" stroke="rgb(254,228,175)" stroke-width="1" opacity="0.996078431372549" d="M 97.5 23 L 98.5 25 L 97.5 23 Z " /><path fill="rgb(254,228,175)" stroke="rgb(254,228,175)" stroke-width="1" opacity="0.996078431372549" d="M 100.5 25 L 107.5 33 L 100.5 25 Z " /><path fill="rgb(254,228,175)" stroke="rgb(254,228,175)" stroke-width="1" opacity="0.996078431372549" d="M 63.5 29 Q 69.8 27.8 71 31.5 L 68.5 30 Q 62.5 31.2 63.5 29 Z " /><path fill="rgb(254,228,175)" stroke="rgb(254,228,175)" stroke-width="1" opacity="0.996078431372549" d="M 190.5 30 L 211 30.5 L 190.5 31 L 190.5 30 Z " /><path fill="rgb(254,228,175)" stroke="rgb(254,228,175)" stroke-width="1" opacity="0.996078431372549" d="M 71.5 33 L 72 60.5 L 71 60.5 L 71.5 33 Z " /><path fill="rgb(254,228,175)" stroke="rgb(254,228,175)" stroke-width="1" opacity="0.996078431372549" d="M 48.5 34 L 47.5 36 L 48.5 34 Z " /><path fill="rgb(254,228,175)" stroke="rgb(254,228,175)" stroke-width="1" opacity="0.996078431372549" d="M 108.5 34 L 109.5 36 L 108.5 34 Z " /><path fill="rgb(254,228,175)" stroke="rgb(254,228,175)" stroke-width="1" opacity="0.996078431372549" d="M 213.5 34 L 214 138 L 219 138.5 L 213 139 L 213.5 34 Z " /><path fill="rgb(254,228,175)" stroke="rgb(254,228,175)" stroke-width="1" opacity="0.996078431372549" d="M 45.5 36 L 43.5 39 L 45.5 36 Z " /><path fill="rgb(254,228,175)" stroke="rgb(254,228,175)" stroke-width="1" opacity="0.996078431372549" d="M 40.5 41 L 37.5 45 L 40.5 41 Z " /><path fill="rgb(254,228,175)" stroke="rgb(254,228,175)" stroke-width="1" opacity="0.996078431372549" d="M 35.5 48 L 35 49.5 L 34.5 51 L 34 49.5 L 35.5 48 Z " /><path fill="rgb(254,228,175)" stroke="rgb(254,228,175)" stroke-width="1" opacity="0.996078431372549" d="M 114.5 50 L 115 55.5 L 114 55.5 L 114.5 50 Z " /><path fill="rgb(254,228,175)" stroke="rgb(254,228,175)" stroke-width="1" opacity="0.996078431372549" d="M 74.5 55 L 76 57.5 L 74 56.5 L 74.5 55 Z " /><path fill="rgb(254,228,175)" stroke="rgb(254,228,175)" stroke-width="1" opacity="0.996078431372549" d="M 31.5 58 L 32 60.5 L 31 60.5 L 31.5 58 Z " /><path fill="rgb(254,228,175)" stroke="rgb(254,228,175)" stroke-width="1" opacity="0.996078431372549" d="M 77.5 58 L 112 58.5 L 77.5 59 L 77.5 58 Z " /><path fill="rgb(254,228,175)" stroke="rgb(254,228,175)" stroke-width="1" opacity="0.996078431372549" d="M 152.5 63 L 151.5 65 L 152.5 63 Z " /><path fill="rgb(254,228,175)" stroke="rgb(254,228,175)" stroke-width="1" opacity="0.996078431372549" d="M 174.5 63 L 177 65.5 L 177 138.5 L 176 138.5 L 176 65.5 L 174.5 63 Z " /><path fill="rgb(254,228,175)" stroke="rgb(254,228,175)" stroke-width="1" opacity="0.996078431372549" d="M 150.5 66 L 151 138.5 L 150 138.5 L 150.5 66 Z " /><path fill="rgb(254,228,175)" stroke="rgb(254,228,175)" stroke-width="1" opacity="0.996078431372549" d="M 31.5 70 L 32 72.5 L 31 72.5 L 31.5 70 Z " /><path fill="rgb(254,228,175)" stroke="rgb(254,228,175)" stroke-width="1" opacity="0.996078431372549" d="M 35.5 83 L 36.5 85 L 35.5 83 Z " /><path fill="rgb(254,228,175)" stroke="rgb(254,228,175)" stroke-width="1" opacity="0.996078431372549" d="M 98.5 83 L 97.5 85 L 98.5 83 Z " /><path fill="rgb(254,228,175)" stroke="rgb(254,228,175)" stroke-width="1" opacity="0.996078431372549" d="M 115.5 85 L 117 85.5 L 114.5 87 L 115.5 85 Z " /><path fill="rgb(254,228,175)" stroke="rgb(254,228,175)" stroke-width="1" opacity="0.996078431372549" d="M 137.5 85 L 139.5 88 L 137.5 85 Z " /><path fill="rgb(254,228,175)" stroke="rgb(254,228,175)" stroke-width="1" opacity="0.996078431372549" d="M 37.5 86 L 39.5 89 L 37.5 86 Z " /><path fill="rgb(254,228,175)" stroke="rgb(254,228,175)" stroke-width="1" opacity="0.996078431372549" d="M 96.5 86 L 95.5 88 L 96.5 86 Z " /><path fill="rgb(254,228,175)" stroke="rgb(254,228,175)" stroke-width="1" opacity="0.996078431372549" d="M 92.5 91 L 91.5 93 L 92.5 91 Z " /><path fill="rgb(254,228,175)" stroke="rgb(254,228,175)" stroke-width="1" opacity="0.996078431372549" d="M 44.5 93 L 46.5 96 L 44.5 93 Z " /><path fill="rgb(254,228,175)" stroke="rgb(254,228,175)" stroke-width="1" opacity="0.996078431372549" d="M 89.5 93 L 87.5 96 L 89.5 93 Z " /><path fill="rgb(254,228,175)" stroke="rgb(254,228,175)" stroke-width="1" opacity="0.996078431372549" d="M 83.5 97 L 82.5 99 L 81 98.5 L 83.5 97 Z " /><path fill="rgb(254,228,175)" stroke="rgb(254,228,175)" stroke-width="1" opacity="0.996078431372549" d="M 62.5 101 L 72 101.5 L 62.5 102 L 62.5 101 Z " /><path fill="rgb(254,228,175)" stroke="rgb(254,228,175)" stroke-width="1" opacity="0.996078431372549" d="M 100.5 106 L 103 107.5 L 101.5 107 L 100.5 106 Z " /><path fill="rgb(254,228,175)" stroke="rgb(254,228,175)" stroke-width="1" opacity="0.996078431372549" d="M 68.5 139 L 67.5 141 L 68.5 139 Z " /><path fill="rgb(254,228,175)" stroke="rgb(254,228,175)" stroke-width="1" opacity="0.996078431372549" d="M 223.5 141 L 224 144.5 L 223 144.5 L 223.5 141 Z " /><path fill="rgb(254,228,175)" stroke="rgb(254,228,175)" stroke-width="1" opacity="0.996078431372549" d="M 67.5 145 L 68.5 147 L 67.5 145 Z " /><path fill="rgb(254,228,175)" stroke="rgb(254,228,175)" stroke-width="1" opacity="0.996078431372549" d="M 35.5 161 L 35 162.5 L 34.5 164 L 34 162.5 L 35.5 161 Z " /><path fill="rgb(254,228,175)" stroke="rgb(254,228,175)" stroke-width="1" opacity="0.996078431372549" d="M 130.5 161 L 131.5 163 L 130.5 161 Z " /><path fill="rgb(254,228,175)" stroke="rgb(254,228,175)" stroke-width="1" opacity="0.996078431372549" d="M 34.5 167 L 35.5 169 L 34.5 167 Z " /><path fill="rgb(254,228,175)" stroke="rgb(254,228,175)" stroke-width="1" opacity="0.996078431372549" d="M 131.5 167 L 130.5 169 L 131.5 167 Z " /><path fill="rgb(254,228,175)" stroke="rgb(254,228,175)" stroke-width="1" opacity="0.996078431372549" d="M 38.5 169 L 129 169.5 L 38.5 170 L 38.5 169 Z " /><path fill="rgb(254,228,175)" stroke="rgb(254,228,175)" stroke-width="1" opacity="0.996078431372549" d="M 37.5 183 L 129 183.5 L 37.5 184 L 37.5 183 Z " /><path fill="rgb(254,228,175)" stroke="rgb(254,228,175)" stroke-width="1" opacity="0.996078431372549" d="M 35.5 184 L 34.5 186 L 35.5 184 Z " /><path fill="rgb(254,228,175)" stroke="rgb(254,228,175)" stroke-width="1" opacity="0.996078431372549" d="M 130.5 184 L 131.5 186 L 130.5 184 Z " /><path fill="rgb(254,228,175)" stroke="rgb(254,228,175)" stroke-width="1" opacity="0.996078431372549" d="M 34.5 189 L 36 191.5 L 34 190.5 L 34.5 189 Z " /><path fill="rgb(254,228,175)" stroke="rgb(254,228,175)" stroke-width="1" opacity="0.996078431372549" d="M 131.5 190 L 130.5 192 L 131.5 190 Z " /><path fill="rgb(254,228,175)" stroke="rgb(254,228,175)" stroke-width="1" opacity="0.996078431372549" d="M 36.5 206 L 130 206.5 L 36.5 207 L 34.5 209 L 36.5 206 Z " /><path fill="rgb(254,228,175)" stroke="rgb(254,228,175)" stroke-width="1" opacity="0.996078431372549" d="M 131.5 213 L 130.5 215 L 131.5 213 Z " /><path fill="rgb(254,228,175)" stroke="rgb(254,228,175)" stroke-width="1" opacity="0.996078431372549" d="M 150.5 235 L 154 237.5 L 152.5 238 L 150.5 235 Z " /><path fill="rgb(254,228,175)" stroke="rgb(254,228,175)" stroke-width="1" opacity="0.996078431372549" d="M 224.5 235 L 222.5 238 L 221 237.5 L 224.5 235 Z " /><path fill="rgb(255,228,175)" stroke="rgb(255,228,175)" stroke-width="1" opacity="1" d="M 20 8 L 236 8 L 236 248 L 20 248 L 20 8 Z M 77 18 L 74 21 L 74 57 L 78 59 L 112 59 L 114 58 L 115 56 Q 115 41 108 33 Q 102 24 92 20 L 85 18 L 77 18 Z M 64 29 L 55 31 L 46 36 Q 35 44 31 59 L 31 73 L 37 87 Q 45 99 63 102 L 77 101 Q 86 99 92 93 L 101 80 L 103 73 L 103 64 L 101 61 L 72 61 L 72 34 L 71 32 Q 70 28 64 29 Z M 191 30 L 188 31 L 187 34 L 187 139 L 178 139 L 177 139 L 177 66 L 175 63 L 153 63 L 150 67 L 150 139 L 150 139 L 140 139 L 140 88 L 138 85 L 116 85 L 114 87 L 114 139 L 114 139 L 103 139 L 103 108 L 102 106 L 80 106 L 77 109 L 77 139 L 77 139 L 69 139 Q 66 140 67 146 L 69 147 L 222 147 Q 225 146 224 142 Q 221 137 214 138 L 214 35 L 213 33 L 211 30 L 191 30 Z M 36 161 Q 33 162 34 168 L 39 170 L 129 170 L 131 169 Q 133 168 132 163 L 131 161 L 36 161 Z M 151 161 L 150 164 L 150 236 L 153 238 L 223 238 L 225 236 L 225 164 L 224 163 L 224 161 L 151 161 Z M 38 183 L 36 184 Q 33 185 34 191 L 36 192 L 131 192 Q 133 191 132 186 L 129 183 L 38 183 Z M 37 206 L 34 209 L 35 214 L 36 215 L 131 215 Q 133 214 132 209 L 130 206 L 37 206 Z M 37 229 L 34 232 Q 33 237 37 238 L 130 238 L 131 237 L 132 237 L 132 230 L 130 229 L 37 229 Z " /><path fill="rgb(51,51,51)" stroke="rgb(51,51,51)" stroke-width="1" opacity="0.9686274509803922" d="M 13.5 0 L 242.5 0 L 244 1.5 L 245 3.5 L 245 252.5 L 242.5 256 L 13.5 256 L 12 254.5 L 11 252.5 L 11 3.5 L 13.5 0 Z M 18 7 L 18 249 L 238 249 L 238 7 L 18 7 Z " /><path fill="rgb(51,51,51)" stroke="rgb(51,51,51)" stroke-width="1" opacity="0.9686274509803922" d="M 78.5 19 L 92.5 22 L 106 32.5 L 112 43.5 L 113 55.5 L 111.5 57 L 76 57 L 75 54.5 L 75 22.5 L 76 20 L 78.5 19 Z M 82 26 L 82 51 L 106 51 L 106 46 L 101 37 Q 95 27 82 26 Z " /><path fill="rgb(51,51,51)" stroke="rgb(51,51,51)" stroke-width="1" opacity="0.9686274509803922" d="M 60.5 31 L 68.5 31 L 70 32.5 L 70 61.5 L 71.5 63 L 100.5 63 L 102 64.5 Q 101.3 85.8 87.5 94 L 74.5 100 L 59.5 100 Q 46 96.5 39 86.5 Q 31.5 78.5 32 62.5 Q 34.3 61.3 33 56.5 L 37 47.5 L 45.5 38 Q 51.4 32.9 60.5 31 Z M 60 38 L 50 43 Q 42 49 39 60 Q 37 76 45 82 L 64 64 L 64 39 Q 64 37 60 38 Z M 69 69 L 50 89 L 62 94 Q 79 96 87 87 Q 92 82 95 74 Q 95 69 95 69 L 69 69 Z " /><path fill="rgb(51,51,51)" stroke="rgb(51,51,51)" stroke-width="1" opacity="0.9686274509803922" d="M 189 32 L 210.5 32 L 212 33.5 L 212 139.5 L 212.5 140 L 220.5 140 Q 222.8 140.8 222 144.5 L 220.5 146 L 69.5 146 Q 67.3 145.3 68 141.5 L 69.5 140 L 78 140 L 78 109.5 L 80.5 107 L 99.5 107 L 102 109.5 L 102 140 L 115 140 L 115 88.5 L 117.5 86 L 136.5 86 L 138 87.5 L 139 89.5 L 139 140 L 151.5 140 L 152 139.5 L 152 65.5 L 153.5 65 L 154.5 64 L 173.5 64 L 175 65.5 L 175 138.5 L 176.5 140 L 187.5 140 L 188 139.5 L 188 35.5 L 189 32 Z M 195 38 L 195 139 L 197 140 L 205 140 L 206 139 L 206 40 L 205 38 L 195 38 Z M 158 71 L 158 139 L 160 140 L 168 140 L 169 139 L 169 72 L 169 71 L 158 71 Z M 121 93 L 121 139 L 123 140 L 132 140 L 132 94 L 132 93 L 121 93 Z M 85 114 L 85 140 L 95 140 L 96 139 L 96 114 L 85 114 Z " /><path fill="rgb(51,51,51)" stroke="rgb(51,51,51)" stroke-width="1" opacity="0.9686274509803922" d="M 37.5 162 L 129.5 162 L 131 163.5 Q 131.8 167.3 129.5 168 L 36.5 168 L 36 166.5 L 35 164.5 L 37.5 162 Z " /><path fill="rgb(51,51,51)" stroke="rgb(51,51,51)" stroke-width="1" opacity="0.9686274509803922" d="M 153.5 162 L 221.5 162 L 224 164.5 L 224 234.5 L 222.5 236 L 220.5 237 L 154.5 237 L 152 236 L 151 233.5 L 151 164.5 L 153.5 162 Z M 160 168 L 158 170 L 158 230 L 217 230 L 217 170 L 216 168 L 160 168 Z " /><path fill="rgb(51,51,51)" stroke="rgb(51,51,51)" stroke-width="1" opacity="0.9686274509803922" d="M 36 185 L 129.5 185 L 131 186.5 Q 131.8 190.3 129.5 191 L 37.5 191 L 35 188.5 L 36 185 Z " /><path fill="rgb(51,51,51)" stroke="rgb(51,51,51)" stroke-width="1" opacity="0.9686274509803922" d="M 36 208 L 129.5 208 L 131 209.5 Q 131.5 213.5 128.5 214 L 37.5 214 L 35 211.5 L 36 208 Z " /><path fill="rgb(51,51,51)" stroke="rgb(51,51,51)" stroke-width="1" opacity="0.9686274509803922" d="M 38.5 230 L 127.5 230 L 131 232.5 L 129.5 236 L 127.5 237 L 38.5 237 L 35 234.5 L 36.5 231 L 38.5 230 Z " /></svg>